<?xml version="1.0" encoding="utf-8"?>
<!-- Generator: Adobe Illustrator 26.5.0, SVG Export Plug-In . SVG Version: 6.00 Build 0)  -->
<svg version="1.1" id="Layer_1" xmlns="http://www.w3.org/2000/svg" xmlns:xlink="http://www.w3.org/1999/xlink" x="0px" y="0px"
	 viewBox="0 0 512 512" style="enable-background:new 0 0 512 512;" xml:space="preserve">
<style type="text/css">
	.st0{clip-path:url(#SVGID_00000124129949768383841140000015735635492839114369_);fill:#231F20;}
</style>
<g id="XMLID_1_">
	<g id="XMLID_2_">
		<g>
			<defs>
				<rect id="SVGID_1_" y="200.05" width="512" height="111.8"/>
			</defs>
			<clipPath id="SVGID_00000031178131018135997150000007615992444838374323_">
				<use xlink:href="#SVGID_1_"  style="overflow:visible;"/>
			</clipPath>
			<path id="XMLID_4_" style="clip-path:url(#SVGID_00000031178131018135997150000007615992444838374323_);fill:#231F20;" d="
				M497.69,284.36h0.98c0.56,0,1.12,0.14,1.12,0.84c0,0.84-0.7,0.84-1.4,0.84h-0.84v-1.68 M496.99,288.84h0.84v-2.24h0.84l1.4,2.24
				h0.84l-1.4-2.24c0.7-0.14,1.4-0.42,1.4-1.4s-0.56-1.4-1.82-1.4h-1.96v5.05H496.99z M495.03,286.32c0-2.1,1.54-3.65,3.65-3.65
				c1.96,0,3.51,1.54,3.51,3.65c0,2.1-1.54,3.79-3.51,3.79C496.57,289.97,495.03,288.42,495.03,286.32z M494.33,286.32
				c0,2.52,1.96,4.35,4.35,4.35s4.35-1.82,4.35-4.35c0-2.38-1.96-4.35-4.35-4.35S494.33,283.79,494.33,286.32z M85.71,305.68
				c0,0-2.81-8.84,4.91-15.57c0,0,8.42-6.31,17.25-0.7C107.87,289.41,100.72,303.71,85.71,305.68z M60.32,246.62
				c8-0.14,14.59,6.31,14.73,14.31c0.14,8-6.31,14.73-14.31,14.87c-8,0.14-14.59-6.31-14.73-14.45
				C45.87,253.35,52.32,246.76,60.32,246.62z M18.94,270.61c0,12.2-8.7,14.45-8.7,14.45c-8.28-15.71-2.1-27.21-2.1-27.21
				C18.24,260.37,18.94,270.61,18.94,270.61z M69.44,219.97c-7.57-3.93-7.43-13.89-7.43-13.89c19.22,1.26,25.11,11.64,25.11,11.64
				C78.83,225.58,69.44,219.97,69.44,219.97z M113.2,286.46c-9.68-8.56-20.48-3.93-20.48-3.93c-16.83,7.57-12.91,23.57-12.91,23.57
				c-16.97-0.28-27.35-11.5-27.35-11.5c-9.82-9.82-9.12-22.3-9.12-22.3c0.84,1.26,3.37,3.93,3.37,3.93
				c12.62,11.08,30.72,0.98,30.72,0.98c20.76-7.86,22.72-28.62,22.72-28.62c3.65-26.51-13.05-39.56-13.05-39.56
				c-11.22-9.12-24.69-8.84-24.69-8.84c-0.42,0-0.98-0.14-1.4-0.14l0,0c-3.51,0-3.79,1.68-3.79,1.68
				c-3.79,14.31,7.72,21.88,7.72,21.88c13.61,9.4,25.25-1.26,25.25-1.26c7.86,13.89,3.79,27.91,3.79,27.91
				c-4.07,15.43-15.99,19.92-15.99,19.92c4.21-6.45,1.82-14.59,1.82-14.59c-3.09-11.22-18.24-21.04-18.24-21.04
				c-18.8-12.06-37.59-0.98-37.59-0.98c-18.1,9.68-22.3,26.09-22.3,26.09c-4.77,13.75,3.93,28.62,3.93,28.62
				c1.54,4.07,3.79,3.09,3.79,3.09c16.27-5.05,15.15-19.64,15.15-19.64c0.28-14.17-13.61-19.22-13.61-19.22
				c11.36-16.41,28.62-17.96,28.62-17.96c10.66-1.12,20.9,6.31,20.9,6.31c-2.1-0.28-8.28,1.68-8.28,1.68
				C42.22,247.04,40.26,257,40.26,257c-7.86,24.27,4.77,37.87,4.77,37.87c18.1,21.74,41.8,16.27,41.8,16.27
				c17.67-2.1,26.65-20.48,26.65-20.48C115.73,287.72,113.2,286.46,113.2,286.46z M228.93,285.9c-13.05,0-23.57-10.8-23.57-24.27
				c0-13.33,10.52-24.27,23.57-24.27c13.05,0,23.57,10.8,23.57,24.27C252.49,275.1,241.97,285.9,228.93,285.9z M228.93,228.67
				c-19.5,0-35.21,14.73-35.21,32.96c0,18.24,15.71,33.1,35.21,33.1c19.5,0,35.21-14.73,35.21-33.1
				C264.14,243.54,248.43,228.67,228.93,228.67z M445.65,282.39h-29.18v-17.96h25.81c2.52,0,4.63-2.1,4.63-4.63s-2.1-4.63-4.63-4.63
				h-25.81v-14.73h29.18c2.52,0,4.63-2.1,4.63-4.63c0-2.52-2.1-4.63-4.63-4.63h-36.19l0,0c-2.52,0-4.63,2.1-4.63,4.63v51.2
				c0,2.52,2.1,4.63,4.63,4.63h36.19c2.52,0,4.63-2.1,4.63-4.63C450.28,284.5,448.18,282.39,445.65,282.39z M332.17,251.39
				c1.26,0,2.38-1.12,2.38-2.38c0-0.56-0.28-0.98-0.28-0.98c-5.61-11.36-17.81-19.22-31.98-19.22c-19.5,0-35.21,14.73-35.21,32.96
				c0,18.24,15.71,33.1,35.21,33.1c15.29,0,28.2-9.12,33.1-21.88l0,0c0,0,0.28-0.42,0.28-0.98c0-1.26-1.12-2.38-2.38-2.38h-7.43
				c-0.56,0-1.26,0.56-1.68,1.12l-0.14,0.28c-3.51,8.7-11.92,14.87-21.74,14.87c-13.05,0-23.57-10.8-23.57-24.27
				c0-13.33,10.52-24.27,23.57-24.27c8.98,0,16.69,5.05,20.62,12.62c0.42,0.7,1.12,1.4,1.68,1.4L332.17,251.39L332.17,251.39z
				 M142.52,269.91c-0.28-0.98-1.26-1.82-2.38-1.82h-5.61c-1.26,0-2.38,1.12-2.38,2.38v1.12c0,12.62,11.5,23.15,29.18,23.15
				c16.13,0,29.32-7.86,29.32-30.02v-31.14c0-1.26-1.12-2.38-2.38-2.38h-7.01c-1.26,0-2.38,1.12-2.38,2.38v31.14
				c0,14.45-6.73,21.04-17.53,21.04c-9.12,0-18.8-6.45-18.8-15.71L142.52,269.91z M509.19,231.33h-7.57c-1.26,0-3.09,1.12-3.79,2.38
				l-16.69,24.83l-14.73-24.83c-0.84-1.26-2.52-2.38-3.79-2.38h-6.73c-2.52,0-3.37,2.1-1.82,4.63l21.88,34.65v16.55
				c0,2.52,2.1,4.63,4.63,4.63h2.52c2.52,0,4.63-2.1,4.63-4.63v-16.97l23.57-34.23c0.42-0.84,0.7-1.68,0.7-2.24v-0.14
				C511.86,232.17,510.88,231.33,509.19,231.33z M400.34,288.14l-24.55-35.91l16.83-17.25c1.82-2.1,0.98-3.65-0.42-3.65h-8.42
				c-1.82,0-2.52,0.7-4.35,2.38l-26.23,26.23v-26.23c0-1.26-1.12-2.38-2.38-2.38h-4.21c0,0-5.19,0-5.19,8.14v49.94
				c0,1.26,1.12,2.38,2.38,2.38h2.95c3.51,0,6.45-2.95,6.45-6.45v-9.82l14.31-14.73l19.64,28.48c0.7,1.12,1.82,2.52,3.09,2.52h7.01
				C400.62,291.65,401.88,290.25,400.34,288.14z"/>
		</g>
	</g>
</g>
</svg>
