<svg xmlns="http://www.w3.org/2000/svg" viewBox="0 0 300 300" width="300" height="300">
  <rect width="100%" height="100%" fill="#f5f5f5"/>
  <path d="M150 125c-13.8 0-25 11.2-25 25s11.2 25 25 25 25-11.2 25-25-11.2-25-25-25zm0 45c-11 0-20-9-20-20s9-20 20-20 20 9 20 20-9 20-20 20z" fill="#8e8e8e"/>
  <path d="M205 95H95c-8.3 0-15 6.7-15 15v80c0 8.3 6.7 15 15 15h110c8.3 0 15-6.7 15-15v-80c0-8.3-6.7-15-15-15zm10 95c0 5.5-4.5 10-10 10H95c-5.5 0-10-4.5-10-10v-80c0-5.5 4.5-10 10-10h110c5.5 0 10 4.5 10 10v80z" fill="#8e8e8e"/>
  <path d="M200 130l-25 30-15-10-40 30h110v-30l-30-20z" fill="#8e8e8e"/>
  <path d="M225 210H75c-2.8 0-5-2.2-5-5s2.2-5 5-5h150c2.8 0 5 2.2 5 5s-2.2 5-5 5z" fill="#8e8e8e"/>
  <path d="M115 225H75c-2.8 0-5-2.2-5-5s2.2-5 5-5h40c2.8 0 5 2.2 5 5s-2.2 5-5 5zM225 225h-40c-2.8 0-5-2.2-5-5s2.2-5 5-5h40c2.8 0 5 2.2 5 5s-2.2 5-5 5z" fill="#8e8e8e"/>
  <text x="150" y="170" text-anchor="middle" font-family="Arial" font-size="14" fill="#8e8e8e">No Image Available</text>
</svg>
