<svg xmlns="http://www.w3.org/2000/svg" viewBox="0 0 300 150">
  <path d="M242.48 65.11c-1.27 0-2.54.06-3.81.17-7.38.64-12.27 3.92-15.59 8.89-4.94 7.39-6.18 17.94-1.33 24.98 3.81 5.52 10.16 8.13 16.92 8.13 1.27 0 2.54-.06 3.81-.17 7.38-.64 12.27-3.92 15.59-8.89 4.94-7.39 6.18-17.94 1.33-24.98-3.81-5.52-10.16-8.13-16.92-8.13zm11.41 31.99c-2.7 4.05-6.9 6.3-12.71 6.81-1.11.1-2.21.15-3.29.15-5.37 0-10.08-1.95-12.91-6.11-3.46-5.05-2.5-13.41 1.37-19.15 2.7-4.05 6.9-6.3 12.71-6.81 1.11-.1 2.21-.15 3.29-.15 5.37 0 10.08 1.95 12.91 6.11 3.46 5.05 2.5 13.41-1.37 19.15zM161.97 106.56h-7.43V78.87c0-4.81-3.94-8.75-8.75-8.75-4.81 0-8.75 3.94-8.75 8.75v27.69h-7.43V78.87c0-8.92 7.26-16.18 16.18-16.18 8.92 0 16.18 7.26 16.18 16.18v27.69zM212.31 106.56h-7.43V78.87c0-4.81-3.94-8.75-8.75-8.75s-8.75 3.94-8.75 8.75v27.69h-7.43V78.87c0-8.92 7.26-16.18 16.18-16.18s16.18 7.26 16.18 16.18v27.69zM110.47 62.7c-8.92 0-16.18 7.26-16.18 16.18v27.69h7.43V78.87c0-4.81 3.94-8.75 8.75-8.75 3.27 0 6.29 1.78 7.84 4.65l6.31-3.95c-3.09-5.26-8.74-8.12-14.15-8.12zM84.14 62.7c-8.92 0-16.18 7.26-16.18 16.18v27.69h7.43V78.87c0-4.81 3.94-8.75 8.75-8.75 3.27 0 6.29 1.78 7.84 4.65l6.31-3.95C95.2 65.56 89.55 62.7 84.14 62.7z" fill="#EB0028"/>
  <path d="M74 43c-31.48 0-57 25.52-57 57s25.52 57 57 57h158c31.48 0 57-25.52 57-57s-25.52-57-57-57H74zm0 7h158c27.61 0 50 22.39 50 50s-22.39 50-50 50H74c-27.61 0-50-22.39-50-50s22.39-50 50-50z" fill="#EB0028"/>
  <path d="M61 68.5c-2.49 0-4.5 2.01-4.5 4.5s2.01 4.5 4.5 4.5 4.5-2.01 4.5-4.5-2.01-4.5-4.5-4.5z" fill="#EB0028"/>
</svg>
